<svg width="101" height="95" viewBox="0 0 101 95" fill="none" xmlns="http://www.w3.org/2000/svg">
<path d="M100.435 0.5V44.7256H96.8311V4.12012H4.10352V90.8799H12.3506L25.6406 53.8213L25.7588 53.4902H29.2588L29.377 53.8213L43.7256 93.8311L43.9658 94.5H40.3389L40.2207 94.167L35.7969 81.7041H19.2207L14.7969 94.167L14.6787 94.5H0.5V0.5H100.435ZM70.5713 53.4902V56.7559H50.8652V72.3418H69.3877V75.6084H50.8652V91.2334H71.0381V94.5H47.4375V53.4902H70.5713ZM100.034 53.4902V56.7559H80.3271V72.3418H98.8496V75.6084H80.3271V91.2334H100.5V94.5H76.9004V53.4902H100.034ZM20.3809 78.4375H34.6367L27.5088 58.3555L20.3809 78.4375Z" fill="white" stroke="black"/>
</svg>
